<svg width="475" height="592" viewBox="0 0 475 592" fill="none" xmlns="http://www.w3.org/2000/svg">
<path fill-rule="evenodd" clip-rule="evenodd" d="M237.423 0.00136811L237.598 0.0668057L474.52 88.6262L474.845 88.7476V89.0945V295.733C474.845 384.516 415.473 458.443 356.212 510.128C326.572 535.98 296.933 556.291 274.706 570.138C263.592 577.062 254.329 582.371 247.844 585.949C244.602 587.738 242.053 589.095 240.315 590.005C239.446 590.459 238.779 590.802 238.329 591.032C238.105 591.147 237.934 591.233 237.819 591.291L237.69 591.356L237.657 591.373L237.649 591.377C237.647 591.378 237.646 591.378 237.423 590.931C237.288 591.201 237.234 591.308 237.212 591.35C237.198 591.378 237.197 591.377 237.197 591.377L237.188 591.373L237.155 591.356L237.026 591.291C236.959 591.257 236.873 591.214 236.769 591.161L236.516 591.032C236.066 590.802 235.399 590.459 234.53 590.005C232.792 589.095 230.243 587.738 227.001 585.949C220.516 582.371 211.253 577.062 200.139 570.138C177.912 556.291 148.273 535.98 118.633 510.128C59.3723 458.443 0 384.516 0 295.733V89.0945V88.7476L0.324935 88.6262L237.247 0.0668057L237.423 0.00136811ZM237.423 590.931L237.646 591.378L237.423 591.49L237.199 591.378L237.423 590.931ZM236.97 590.141C237.161 590.239 237.312 590.315 237.423 590.371L237.582 590.291C237.666 590.248 237.764 590.198 237.875 590.141C238.322 589.913 238.985 589.572 239.851 589.119C241.584 588.212 244.125 586.859 247.361 585.073C253.833 581.503 263.08 576.203 274.177 569.289C296.373 555.461 325.965 535.182 355.555 509.375C414.756 457.741 473.845 384.068 473.845 295.733V89.4414L237.423 1.06895L1 89.4414V295.733C1 384.068 60.0889 457.741 119.29 509.375C148.88 535.182 178.472 555.461 200.668 569.289C211.765 576.203 221.012 581.503 227.484 585.073C230.72 586.859 233.261 588.212 234.994 589.119C235.86 589.572 236.523 589.913 236.97 590.141ZM237.9 71.6512L238.075 71.7169L417.2 138.781L417.525 138.903V139.249V295.733C417.525 363.021 372.603 419.035 327.792 458.182C305.376 477.764 282.962 493.149 266.153 503.638C257.748 508.882 250.743 512.904 245.839 515.614C243.386 516.97 241.459 517.997 240.144 518.687C239.486 519.031 238.982 519.291 238.642 519.465C238.471 519.552 238.342 519.618 238.255 519.662L238.157 519.711L238.132 519.724L238.126 519.727C238.124 519.728 238.123 519.728 237.9 519.281L238.123 519.728L237.9 519.84L237.677 519.728L237.732 519.617C237.676 519.728 237.675 519.728 237.675 519.727L237.668 519.724L237.643 519.711L237.545 519.662C237.458 519.618 237.329 519.552 237.159 519.465C236.818 519.291 236.314 519.031 235.656 518.687C234.341 517.997 232.414 516.97 229.962 515.614C225.057 512.904 218.052 508.882 209.647 503.638C192.839 493.149 170.425 477.764 148.009 458.182C103.198 419.035 58.2753 363.021 58.2753 295.733V139.249V138.903L58.6 138.781L237.725 71.7169L237.9 71.6512ZM238.047 518.646L238.186 518.575C238.524 518.403 239.025 518.144 239.68 517.801C240.989 517.115 242.91 516.091 245.355 514.739C250.246 512.036 257.236 508.023 265.624 502.789C282.401 492.32 304.768 476.967 327.134 457.429C371.885 418.334 416.525 362.574 416.525 295.733V139.596L237.9 72.719L59.2753 139.596V295.733C59.2753 362.574 103.915 418.334 148.667 457.429C171.032 476.967 193.399 492.32 210.177 502.789C218.565 508.023 225.554 512.036 230.445 514.739C232.891 516.091 234.812 517.115 236.121 517.801C236.775 518.144 237.276 518.403 237.614 518.575C237.724 518.632 237.817 518.679 237.892 518.717L237.9 518.721C237.943 518.699 237.992 518.674 238.047 518.646ZM237.9 138.517L238.075 138.582L363.701 185.585L364.026 185.706V186.053V295.725C364.026 342.951 332.478 382.247 301.042 409.691C285.313 423.422 269.587 434.209 257.793 441.563C251.896 445.241 246.981 448.06 243.539 449.961C241.818 450.912 240.466 451.633 239.543 452.116C239.28 452.254 239.052 452.372 238.861 452.471C238.715 452.546 238.591 452.61 238.488 452.663C238.368 452.724 238.277 452.77 238.216 452.801L238.147 452.835L238.129 452.844L238.125 452.846C238.124 452.847 238.123 452.847 238.073 452.747L238.123 452.847L237.9 452.959L237.677 452.847L237.9 452.4C237.715 452.77 237.683 452.834 237.676 452.844C237.675 452.847 237.675 452.847 237.675 452.846L237.67 452.844L237.653 452.835L237.583 452.801C237.522 452.77 237.431 452.724 237.312 452.663C237.073 452.54 236.718 452.358 236.257 452.116C235.334 451.633 233.981 450.912 232.26 449.961C228.818 448.06 223.903 445.241 218.006 441.563C206.213 434.209 190.486 423.422 174.758 409.691C143.321 382.247 111.773 342.951 111.773 295.725V186.053V185.706L112.098 185.585L237.724 138.582L237.9 138.517ZM237.9 451.84L238.033 451.772C238.269 451.651 238.62 451.47 239.079 451.23C239.996 450.75 241.342 450.033 243.056 449.086C246.484 447.192 251.384 444.382 257.264 440.715C269.026 433.38 284.706 422.625 300.384 408.938C331.761 381.546 363.026 342.504 363.026 295.725V186.4L237.9 139.585L112.773 186.4V295.725C112.773 342.504 144.039 381.546 175.415 408.938C191.093 422.625 206.773 433.38 218.535 440.715C224.416 444.382 229.315 447.192 232.743 449.086C234.458 450.033 235.804 450.75 236.721 451.23C237.179 451.47 237.531 451.651 237.767 451.772L237.9 451.84ZM237.597 195.907L237.422 195.841L237.246 195.907L157.954 225.57L157.629 225.691V226.038V295.252C157.629 325.139 177.594 349.985 197.446 367.314C207.383 375.988 217.318 382.802 224.768 387.446C228.493 389.769 231.598 391.55 233.773 392.751C234.86 393.352 235.715 393.807 236.299 394.113C236.591 394.266 236.815 394.381 236.967 394.459C237.042 394.498 237.1 394.527 237.139 394.546L237.183 394.569L237.194 394.574L237.197 394.576C237.198 394.576 237.198 394.576 237.285 394.402L237.198 394.576L237.422 394.688L237.645 394.576L237.422 394.129C237.645 394.576 237.645 394.576 237.646 394.576L237.649 394.574L237.66 394.569L237.704 394.546C237.743 394.527 237.801 394.498 237.876 394.459C238.028 394.381 238.252 394.266 238.544 394.113C239.128 393.807 239.983 393.352 241.07 392.751C243.245 391.55 246.35 389.769 250.076 387.446C257.525 382.802 267.46 375.988 277.397 367.314C297.25 349.985 317.214 325.139 317.214 295.252V226.038V225.691L316.889 225.57L237.597 195.907ZM238.08 393.227C237.791 393.379 237.57 393.492 237.422 393.568C237.273 393.492 237.052 393.379 236.763 393.227C236.185 392.925 235.337 392.473 234.256 391.876C232.095 390.682 229.005 388.91 225.297 386.598C217.879 381.973 207.99 375.191 198.104 366.561C178.311 349.284 158.629 324.691 158.629 295.252V226.385L237.422 196.909L316.214 226.385V295.252C316.214 324.691 296.532 349.284 276.739 366.561C266.853 375.191 256.964 381.973 249.546 386.598C245.838 388.91 242.748 390.682 240.587 391.876C239.506 392.473 238.658 392.925 238.08 393.227Z" fill="white" fill-opacity="0.3"/>
</svg>
