<svg width="375" height="288" viewBox="0 0 375 288" fill="none" xmlns="http://www.w3.org/2000/svg">
<path d="M108 179.295C96.1196 188.159 85.7597 193.956 81.759 196.086C80.6553 196.674 79.3718 196.688 78.2679 196.1C66.6908 189.939 1 152.619 1 99V33.1794C1 31.5084 2.03877 30.0134 3.60487 29.4306L78.6049 1.5192C79.5048 1.18429 80.4952 1.18429 81.3951 1.5192L156.395 29.4306C157.961 30.0134 159 31.5084 159 33.1794V99C159 99.8162 158.985 100.629 158.955 101.437M108 179.295V189C108 242.619 173.691 279.939 185.268 286.1C186.372 286.688 187.628 286.688 188.732 286.1C200.309 279.939 266 242.619 266 189V178.548M108 179.295V154.531M108 154.531V123.179C108 121.508 109.039 120.013 110.605 119.431L138.902 108.9M108 154.531C96.8297 163.887 86.0386 170.068 81.9163 172.292C80.8143 172.887 79.528 172.899 78.4258 172.305C68.6093 167.011 20.4314 138.992 20.4314 99V49.8283C20.4314 48.1581 21.4693 46.6636 23.0343 46.0802L78.7621 25.3072C79.6633 24.9713 80.6553 24.9713 81.5564 25.3072L137.284 46.0802C138.849 46.6636 139.887 48.1581 139.887 49.8283V99C139.887 102.388 139.541 105.69 138.902 108.9M138.902 108.9L158.955 101.437M158.955 101.437L185.605 91.5192C186.505 91.1843 187.495 91.1843 188.395 91.5192L216.056 101.813M216.056 101.813C216.016 100.881 215.996 99.9429 215.996 99V33.1794C215.996 31.5084 217.035 30.0134 218.601 29.4306L293.601 1.5192C294.501 1.18429 295.491 1.18429 296.391 1.5192L371.391 29.4306C372.957 30.0134 373.996 31.5084 373.996 33.1794V99C373.996 152.619 308.305 189.939 296.728 196.1C295.624 196.688 294.341 196.674 293.237 196.086C289.125 193.896 278.295 187.833 266 178.548M216.056 101.813L236.52 109.429M236.52 109.429L263.395 119.431C264.961 120.013 266 121.508 266 123.179V153.417M236.52 109.429C235.812 106.054 235.428 102.575 235.428 99V49.8283C235.428 48.1581 236.465 46.6636 238.03 46.0802L293.758 25.3072C294.659 24.9713 295.651 24.9713 296.552 25.3072L352.28 46.0802C353.845 46.6636 354.883 48.1581 354.883 49.8283V99C354.883 138.992 306.705 167.011 296.889 172.305C295.787 172.899 294.505 172.889 293.402 172.294C289.122 169.985 277.633 163.4 266 153.417M266 153.417V178.548M246.887 189C246.887 228.992 198.709 257.011 188.893 262.305C187.791 262.899 186.528 262.899 185.426 262.305C175.609 257.011 127.431 228.992 127.431 189V163.025V162.727V139.828C127.431 138.158 128.469 136.664 130.034 136.08L152.743 127.616L185.762 115.307C186.663 114.971 187.655 114.971 188.556 115.307L222.387 127.918L244.284 136.08C245.849 136.664 246.887 138.158 246.887 139.828V163.025V189Z" stroke="white" stroke-opacity="0.7" stroke-linecap="round"/>
</svg>
