<svg width="375" height="288" viewBox="0 0 375 288" fill="none" xmlns="http://www.w3.org/2000/svg">
<path d="M112.551 177.12C101.275 185.54 91.443 191.047 87.6461 193.071C86.5986 193.629 85.3805 193.643 84.3328 193.084C73.3453 187.231 11 151.778 11 100.842V38.3148C11 36.7274 11.9859 35.3072 13.4722 34.7535L84.6526 8.23862C85.5067 7.92046 86.4467 7.92046 87.3007 8.23862L158.481 34.7535C159.967 35.3072 160.953 36.7274 160.953 38.3148V100.842C160.953 101.618 160.939 102.39 160.911 103.157M112.551 177.12V186.339C112.551 237.276 174.896 272.728 185.884 278.581C186.931 279.14 188.123 279.14 189.171 278.581C200.159 272.728 262.504 237.276 262.504 186.339V176.41M112.551 177.12V153.595M160.911 103.157L141.879 110.247M160.911 103.157L186.203 93.7357C187.058 93.4175 187.997 93.4175 188.851 93.7357L215.104 103.514M262.504 176.41C274.173 185.231 284.451 190.99 288.354 193.071C289.402 193.629 290.619 193.643 291.667 193.084C302.655 187.231 365 151.778 365 100.842V38.3148C365 36.7274 364.014 35.3072 362.528 34.7535L291.347 8.23862C290.493 7.92046 289.554 7.92046 288.699 8.23862L217.519 34.7535C216.033 35.3072 215.047 36.7274 215.047 38.3148V100.842C215.047 101.738 215.066 102.629 215.104 103.514M262.504 176.41V152.537M112.551 153.595V123.811C112.551 122.224 113.537 120.804 115.023 120.251L141.879 110.247M112.551 153.595C101.949 162.483 91.7077 168.354 87.7954 170.467C86.7495 171.032 85.5287 171.044 84.4826 170.48C75.1661 165.45 29.4418 138.833 29.4418 100.842V54.1307C29.4418 52.544 30.4268 51.1243 31.9121 50.5701L84.8018 30.8364C85.6571 30.5173 86.5986 30.5173 87.4538 30.8364L140.343 50.5701C141.829 51.1243 142.814 52.544 142.814 54.1307V100.842C142.814 104.061 142.485 107.197 141.879 110.247M215.104 103.514L234.525 110.749M234.525 110.749L260.032 120.251C261.518 120.804 262.504 122.224 262.504 123.811V152.537M234.525 110.749C233.853 107.543 233.489 104.238 233.489 100.842V54.1307C233.489 52.544 234.473 51.1243 235.958 50.5701L288.848 30.8364C289.703 30.5173 290.645 30.5173 291.5 30.8364L344.39 50.5701C345.875 51.1243 346.86 52.544 346.86 54.1307V100.842C346.86 138.833 301.136 165.45 291.82 170.48C290.774 171.044 289.557 171.034 288.511 170.469C284.448 168.276 273.545 162.02 262.504 152.537M244.364 186.339C244.364 224.33 198.64 250.947 189.324 255.977C188.278 256.541 187.079 256.541 186.034 255.977C176.716 250.947 130.992 224.33 130.992 186.339V161.664V161.381V139.627C130.992 138.041 131.977 136.622 133.463 136.067L155.015 128.026L186.352 116.333C187.208 116.014 188.149 116.014 189.004 116.333L221.112 128.313L241.894 136.067C243.379 136.622 244.364 138.041 244.364 139.627V161.664V186.339Z" stroke="white" stroke-opacity="0.7" stroke-width="5" stroke-linecap="round"/>
</svg>
